:SAMPLES-PER-SECOND 30
:FRAME-RANGE 1-3535
:FULLY-SPECIFIED
:DEGREES
3315
root  -26.9798 38.3659 6.17901 10.8394 66.9236 5.67596
RightUpLeg  5.46176 -3.61379 6.55874
RightLeg  14.7185 -1.49525 1.53777
RightFoot  -19.1412 -0.281252 -2.22658
RightToes  1.22775e-009 1.2921e-014 -6.02303e-014
Spine  17.0165 5.00949 4.55613
Spine1  -2.26266 7.24113 -13.7182
HEad  -5.36885 -13.7557 6.53054
LeftShoulder1  0.583502 1.62438 -24.8067
LeftArm  12.4967 20.5125 -20.2451
LeftForeArm  -3.21597 -20.9679 -6.35501
LeftHand  0.450171 -4.76892 -4.84632
RightShoulder  11.8074 25.5029 34.5058
RightArm  3.96015 14.886 17.8331
RightForeArm  3.89845 46.2702 11.4559
RightHand  0.390595 3.62947 4.76922
LeftUpLeg  -40.6322 2.12112 -0.743383
LeftLeg  31.0322 -10.8641 -6.6559
LeftFoot  3.97652 3.11377 -23.057
LeftToes  2.52163e-011 5.65494e-011 -1.09494e-012
3316
root  -25.4183 38.1225 7.31957 9.54749 62.291 4.57397
RightUpLeg  9.43277 -3.93864 5.70485
RightLeg  13.9956 3.13426 2.02622
RightFoot  -19.0204 -0.219919 -1.35996
RightToes  1.22775e-009 1.2921e-014 -6.02303e-014
Spine  14.6758 5.70228 3.96984
Spine1  -2.48745 8.26749 -15.8707
HEad  -2.83677 -11.2035 6.67577
LeftShoulder1  0.537492 1.79269 -25.185
LeftArm  11.0313 18.8313 -19.6594
LeftForeArm  -3.15842 -23.4369 -5.2091
LeftHand  0.426662 -4.72445 -4.6012
RightShoulder  12.3909 26.8603 34.5643
RightArm  7.69466 14.6299 20.1915
RightForeArm  9.36979 52.4816 13.9649
RightHand  0.507573 3.63353 6.26744
LeftUpLeg  -36.4349 5.52998 -2.97324
LeftLeg  19.5831 -12.009 -4.39061
LeftFoot  5.50822 4.19943 -28.0656
LeftToes  2.52163e-011 5.65494e-011 -1.09494e-012
3317
root  -23.8899 37.7247 8.37574 6.9729 57.8783 2.61341
RightUpLeg  12.1675 -8.06075 3.3306
RightLeg  17.4937 10.4391 3.96029
RightFoot  -19.2407 -0.0472198 1.20237
RightToes  1.22775e-009 1.2921e-014 -6.02303e-014
Spine  12.7623 5.95923 4.58818
Spine1  -1.797 9.37411 -18.175
HEad  -1.4386 -7.35926 6.43095
LeftShoulder1  0.503815 1.9293 -25.793
LeftArm  7.65553 17.0539 -18.8477
LeftForeArm  -0.933247 -25.3138 -5.47081
LeftHand  0.426918 -4.95278 -4.48782
RightShoulder  13.0516 27.9051 35.2643
RightArm  10.841 13.6469 21.5282
RightForeArm  15.4964 59.3432 17.8865
RightHand  0.630377 3.45388 8.01321
LeftUpLeg  -33.2879 10.5855 -5.62527
LeftLeg  16.2806 -13.4993 -4.24195
LeftFoot  8.0306 2.51514 -14.9537
LeftToes  2.52163e-011 5.65494e-011 -1.09494e-012
3318
root  -22.5692 37.4551 9.23746 6.31421 53.9238 3.82161
RightUpLeg  12.2076 -11.6402 -2.12299
RightLeg  27.508 16.7319 9.04589
RightFoot  -16.9669 0.245909 7.34066
RightToes  1.22775e-009 1.2921e-014 -6.02303e-014
Spine  14.3415 5.65068 2.33384
Spine1  -3.26712 9.00193 -18.7784
HEad  -1.39874 -1.95176 6.00468
LeftShoulder1  0.494517 2.00193 -26.7534
LeftArm  5.03138 15.7558 -18.5076
LeftForeArm  -0.132586 -26.5784 -5.71944
LeftHand  0.404075 -4.52199 -4.44462
RightShoulder  13.7019 28.3994 36.611
RightArm  14.5549 12.7448 22.0753
RightForeArm  21.1472 65.5033 23.4415
RightHand  0.664196 2.91524 9.0466
LeftUpLeg  -32.2267 5.77281 -4.71351
LeftLeg  22.6089 -4.00362 -1.49576
LeftFoot  7.61881 -0.277798 1.38568
LeftToes  2.52163e-011 5.65494e-011 -1.09494e-012
3319
root  -21.3545 36.8639 10.0823 5.91138 52.3529 6.05302
RightUpLeg  8.21636 -13.3337 -7.44347
RightLeg  44.8828 16.1847 16.3116
RightFoot  -11.3794 -0.0726035 15.2987
RightToes  1.22775e-009 1.2921e-014 -6.02303e-014
Spine  16.9958 5.18488 -1.23693
Spine1  -5.00742 7.18997 -15.8817
HEad  -2.84129 3.55239 5.19594
LeftShoulder1  0.882336 1.03116 -29.5934
LeftArm  7.10104 9.75023 -18.0251
LeftForeArm  -5.49303 -24.0761 -5.42129
LeftHand  0.323332 -3.83656 -3.80907
RightShoulder  13.869 27.4696 38.4122
RightArm  17.2838 12.6247 22.0718
RightForeArm  25.0736 67.7047 26.0206
RightHand  0.647186 2.73205 9.0243
LeftUpLeg  -32.3011 2.91884 -4.60201
LeftLeg  32.5761 -0.338288 0.121811
LeftFoot  0.216479 0.0613689 -0.619491
LeftToes  2.52163e-011 5.65494e-011 -1.09494e-012
